<?xml version="1.0" encoding="UTF-8" standalone="no"?>
<svg
   xmlns:dc="http://purl.org/dc/elements/1.1/"
   xmlns:cc="http://creativecommons.org/ns#"
   xmlns:rdf="http://www.w3.org/1999/02/22-rdf-syntax-ns#"
   xmlns:svg="http://www.w3.org/2000/svg"
   xmlns="http://www.w3.org/2000/svg"
   xmlns:sodipodi="http://sodipodi.sourceforge.net/DTD/sodipodi-0.dtd"
   xmlns:inkscape="http://www.inkscape.org/namespaces/inkscape"
   id="ba230943-1bdb-4bd0-9561-c7824586c7f7"
   data-name="Layer 1"
   width="322.15948"
   height="391.83105"
   viewBox="0 0 322.15949 391.83104"
   version="1.1"
   sodipodi:docname="banner-img-2.svg"
   inkscape:version="1.0.2 (e86c870, 2021-01-15)">
  <metadata
     id="metadata2679">
    <rdf:RDF>
      <cc:Work
         rdf:about="">
        <dc:format>image/svg+xml</dc:format>
        <dc:type
           rdf:resource="http://purl.org/dc/dcmitype/StillImage" />
        <dc:title></dc:title>
      </cc:Work>
    </rdf:RDF>
  </metadata>
  <defs
     id="defs2677" />
  <sodipodi:namedview
     pagecolor="#ffffff"
     bordercolor="#666666"
     borderopacity="1"
     objecttolerance="10"
     gridtolerance="10"
     guidetolerance="10"
     inkscape:pageopacity="0"
     inkscape:pageshadow="2"
     inkscape:window-width="1600"
     inkscape:window-height="871"
     id="namedview2675"
     showgrid="false"
     inkscape:zoom="0.99253114"
     inkscape:cx="482.99591"
     inkscape:cy="164.55968"
     inkscape:window-x="0"
     inkscape:window-y="0"
     inkscape:window-maximized="1"
     inkscape:current-layer="ba230943-1bdb-4bd0-9561-c7824586c7f7" />
  <path
     d="m 223.77018,198.76407 a 9.75072,9.75072 0 1 0 -19.40734,1.28194 l -28.01439,36.68607 a 13.58254,13.58254 0 0 0 1.83575,14.91417 l 2.19759,2.56354 10.083,-2.01667 11.42794,-10.08331 -1.34463,-11.42774 14.1167,-22.18324 -0.0183,-0.0159 a 9.74283,9.74283 0 0 0 9.12363,-9.71884 z"
     fill="#ffb9b9"
     id="path2608" />
  <polygon
     points="88.8,380.265 95.549,405.331 30.041,422.968 25.468,405.984 "
     fill="#ffb8b8"
     id="polygon2610"
     transform="translate(0,-44.85018)" />
  <path
     d="M 14.7441,386.88171 0,332.11959 0.69264,331.93308 a 22.07516,22.07516 0 0 1 27.054,15.57522 l 3.7e-4,10e-4 9.00509,33.44687 z"
     fill="#2f2e41"
     id="path2612" />
  <polygon
     points="136.185,350.121 157.179,365.388 117.278,420.254 103.054,409.91 "
     fill="#ffb8b8"
     id="polygon2614"
     transform="translate(0,-44.85018)" />
  <path
     d="m 110.8789,391.83104 -45.86612,-33.35531 0.42187,-0.58015 a 22.07517,22.07517 0 0 1 30.8348,-4.87041 l 10e-4,8.2e-4 28.01339,20.37244 z"
     fill="#2f2e41"
     id="path2616" />
  <path
     d="m 238.19235,291.854 -35.795,-34.77263 a 18.07626,18.07626 0 0 0 -23.66833,-1.3221 l -67.58632,75.08366 6.05018,9.41084 64.53278,-43.69434 43.69437,57.13867 41.67764,-20.83841 z"
     fill="#2f2e41"
     id="path2618" />
  <path
     d="m 222.73149,299.2485 -26.21673,-2.01667 -18.986,-4.60272 a 9.75256,9.75256 0 1 0 -1.85,12.65572 l -0.003,0.0136 11.42793,4.70553 49.07181,16.80551 6.05,-4.70553 z"
     fill="#ffb9b9"
     id="path2620" />
  <polygon
     points="253.653,426.11 172.315,395.86 53.332,417.371 49.971,391.826 158.871,344.099 254.326,375.693 285.92,416.699 271.131,426.11 "
     fill="#2f2e41"
     id="polygon2622"
     transform="translate(0,-44.85018)" />
  <circle
     cx="254.32578"
     cy="182.28227"
     r="26.216579"
     fill="#ffb9b9"
     id="circle2624" />
  <path
     d="m 322.15948,286.95359 a 150.631,150.631 0 0 1 -7.3877,46.59159 l -1.96286,6.03657 -9.4111,43.0221 -10.08328,2.68886 -7.39442,-9.41107 -14.78884,-10.7555 -10.75552,-17.47771 -9.22284,-15.367 -2.87712,-4.79967 -10.08331,-50.41649 -38.31653,-21.511 -12.77217,-2.01667 2.68889,-7.39442 11.42774,-15.46106 11.42768,-1.34449 3.36111,-2.68888 2.68888,1.34443 14.82257,5.71013 48.05688,-20.304 7.03142,1.14951 24.19988,20.16661 a 150.49912,150.49912 0 0 1 9.35064,52.23816 z"
     fill="#cccccc"
     id="path2626" />
  <polygon
     points="251.153,377.131 248.276,372.332 240.209,331.999 242.226,331.999 263.065,293.683 314.825,325.949 289.281,342.754 "
     opacity="0.1"
     style="isolation:isolate"
     id="polygon2628"
     transform="translate(0,-44.85018)" />
  <polygon
     points="230.126,341.41 219.371,344.099 248.276,375.693 289.281,338.721 314.825,321.915 263.065,289.649 242.226,327.965 "
     fill="#cccccc"
     id="polygon2630"
     transform="translate(0,-44.85018)" />
  <path
     d="m 233.93462,162.78909 -2.8405,1.09286 a 3.96532,3.96532 0 0 1 -1.06033,-5.50666 q 0.0229,-0.0339 0.0466,-0.0673 l -5.24917,-0.24564 a 39.63744,39.63744 0 0 1 59.17341,-4.76951 c 0.239,-0.8231 2.84419,0.7783 3.90783,2.40209 0.35739,-1.33937 2.8001,5.13521 3.66407,9.71188 0.4,-1.52384 1.93791,0.9362 0.59056,3.2967 0.8537,-0.12472 1.23931,2.05947 0.57843,3.27633 0.934,-0.43878 0.77654,2.16855 -0.23609,3.911 1.3327,-0.11841 -0.1137,27.33122 -20.1137,25.33122 -1.39236,-6.39749 -1,-6 -2.63957,-14.22639 -0.76312,-0.81 -1.59882,-1.54779 -2.43315,-2.28425 l -4.51259,-3.9833 c -5.2473,-4.63182 -10.02063,-10.34844 -17.01093,-12.07955 -4.80393,-1.18968 -7.84143,-1.45827 -5.22344,-6.87151 -2.36532,0.98706 -4.57411,2.45493 -6.96063,3.37169 0.0321,-0.7564 0.36561,-1.60282 0.31919,-2.35961 z"
     fill="#2f2e41"
     id="path2632" />
  <circle
     cx="267.43405"
     cy="185.30727"
     r="4.7055402"
     fill="#ffb9b9"
     id="circle2634" />
  <rect
     x="-92.429039"
     y="52.82024"
     width="21.61009"
     height="21.61009"
     transform="rotate(-86.18992)"
     fill="#e6e6e6"
     style="isolation:isolate"
     id="rect2636" />
  <path
     d="m 34.08564,85.62177 26.18282,1.74368 -1.74369,26.18282 -26.18282,-1.74368 z m 24.96862,2.80626 -23.90605,-1.59206 -1.59206,23.906 23.90605,1.59206 z"
     fill="#cccccc"
     id="path2638" />
  <rect
     x="142.29982"
     y="45.686398"
     width="21.61009"
     height="21.61009"
     transform="rotate(-12.12675)"
     fill="#e6e6e6"
     style="isolation:isolate"
     id="rect2640" />
  <path
     d="m 155.02052,0 5.51255,25.65526 -25.65526,5.51254 -5.51254,-25.65526 z m 4.15743,24.7795 -5.0332,-23.42436 -23.42437,5.03319 5.03319,23.42438 z"
     fill="#cccccc"
     id="path2642" />
  <rect
     x="9.7920122"
     y="182.45692"
     width="21.610081"
     height="21.61009"
     transform="rotate(-43.12712)"
     fill="#e6e6e6"
     style="isolation:isolate"
     id="rect2644" />
  <path
     d="m 163.55666,109.48707 -19.15156,17.93874 -17.93873,-19.15156 19.15156,-17.93872 z m -19.09885,16.3261 17.48621,-16.37883 -16.37884,-17.48618 -17.48621,16.37884 z"
     fill="#cccccc"
     id="path2646" />
</svg>
