<?xml version="1.0" encoding="UTF-8" standalone="no"?>
<svg
   xmlns:dc="http://purl.org/dc/elements/1.1/"
   xmlns:cc="http://creativecommons.org/ns#"
   xmlns:rdf="http://www.w3.org/1999/02/22-rdf-syntax-ns#"
   xmlns:svg="http://www.w3.org/2000/svg"
   xmlns="http://www.w3.org/2000/svg"
   xmlns:sodipodi="http://sodipodi.sourceforge.net/DTD/sodipodi-0.dtd"
   xmlns:inkscape="http://www.inkscape.org/namespaces/inkscape"
   id="e3553d74-0590-491b-b28e-952d4d1eac83"
   data-name="Layer 1"
   width="672.5315"
   height="738.39398"
   viewBox="0 0 672.5315 738.39398"
   version="1.1"
   sodipodi:docname="logo-white.svg"
   inkscape:version="1.0.2 (e86c870, 2021-01-15)">
  <metadata
     id="metadata305">
    <rdf:RDF>
      <cc:Work
         rdf:about="">
        <dc:format>image/svg+xml</dc:format>
        <dc:type
           rdf:resource="http://purl.org/dc/dcmitype/StillImage" />
        <dc:title></dc:title>
      </cc:Work>
    </rdf:RDF>
  </metadata>
  <defs
     id="defs303" />
  <sodipodi:namedview
     pagecolor="#ffffff"
     bordercolor="#666666"
     borderopacity="1"
     objecttolerance="10"
     gridtolerance="10"
     guidetolerance="10"
     inkscape:pageopacity="0"
     inkscape:pageshadow="2"
     inkscape:window-width="1600"
     inkscape:window-height="871"
     id="namedview301"
     showgrid="false"
     inkscape:zoom="0.52573779"
     inkscape:cx="377.23322"
     inkscape:cy="259.16776"
     inkscape:window-x="0"
     inkscape:window-y="0"
     inkscape:window-maximized="1"
     inkscape:current-layer="e3553d74-0590-491b-b28e-952d4d1eac83" />
  <path
     d="m 2037.5028,250.59576 a 600.121,600.121 0 0 0 -65.2002,-13.84 943.3639,943.3639 0 0 0 -108.7397,-10.45 c -15.1704,-0.62 -30.6201,-0.94 -46.2402,-0.94 -12.3799,0 -24.6602,0.2 -36.77,0.6 a 973.28988,973.28988 0 0 0 -106.1602,8.97 624.29224,624.29224 0 0 0 -77.25,15.66 c -59.21,16.37 -91.8198,38.31 -91.8198,61.77 0,23.46 32.6098,45.4 91.8198,61.77 41.6401,11.52 92.98,19.37 148.9204,22.97 23.0899,1.5 46.96,2.26 71.2598,2.26 24.3799,0 48.3301,-0.77 71.4902,-2.27 50.9097,-3.29 98.0098,-10.1 137.4297,-20 0.21,-0.06 0.4102,-0.11 0.6201,-0.16 2.6602,-0.66 5.2798,-1.35 7.8701,-2.04 0.9297,-0.26 1.8496,-0.51 2.77,-0.76 a 0.97843,0.97843 0 0 1 0.1597,-0.05 c 0.8804,-0.24 1.75,-0.49 2.6201,-0.73 1.7403,-0.5 3.46,-0.99 5.1499,-1.5 0.08,-0.02 0.1499,-0.04 0.2202,-0.06 1.4698,-0.44 2.9102,-0.88 4.3399,-1.32 1.1699,-0.37 2.3301,-0.73 3.48,-1.1 q 1.2605,-0.405 2.4902,-0.81 c 0.6001,-0.2 1.19,-0.39 1.77,-0.59 0.79,-0.26 1.5801,-0.53 2.3599,-0.8 0.3301,-0.11 0.6601,-0.22 0.98,-0.34 0.75,-0.25 1.48,-0.51 2.21,-0.77 0.79,-0.28 1.5801,-0.57 2.3598,-0.85 0.6504,-0.23 1.3003,-0.47 1.94,-0.71 0.54,-0.21 1.0703,-0.41 1.6103,-0.61 1.4698,-0.55 2.9102,-1.12006 4.3301,-1.68 0.71,-0.29 1.4199,-0.57 2.1196,-0.86 0.69,-0.28 1.3902,-0.57 2.0704,-0.86 q 1.6794,-0.70506 3.2998,-1.41 c 0.52,-0.24 1.0503,-0.47 1.56,-0.68994 0.3902,-0.18 0.77,-0.35 1.1602,-0.53 0.2798,-0.12 0.56,-0.25 0.8301,-0.38 1.0097,-0.46 2.0097,-0.93 2.9897,-1.4 q 5.6404,-2.7 10.5298,-5.52 c 20.4502,-11.71 31.2402,-24.7 31.2402,-38.2 0,-23.46006 -32.6099,-45.40006 -91.8199,-61.77006 z m -0.54,121.62 c -41.6899,11.53 -93.1699,19.38 -149.2602,22.95 -22.8101,1.45 -46.3897,2.2 -70.3799,2.2 -23.9102,0 -47.4102,-0.74 -70.1499,-2.19 -56.1802,-3.56 -107.7402,-11.41 -149.4902,-22.96 -58.27,-16.12 -90.3599,-37.37 -90.3599,-59.85 a 24.11774,24.11774 0 0 1 0.7402,-5.89 c 5.0996,-20.28 36.4698,-39.26 89.6197,-53.96 a 623.80606,623.80606 0 0 1 76.6601,-15.57 976.02713,976.02713 0 0 1 106.7998,-9 q 17.8806,-0.585 36.1802,-0.58 c 15.4102,0 30.6499,0.31 45.6299,0.91 a 941.36713,941.36713 0 0 1 109.3701,10.5 598.85754,598.85754 0 0 1 64.6401,13.74 c 53.1401,14.7 84.5,33.67 89.6099,53.94 a 23.82213,23.82213 0 0 1 0.75,5.91 c 0,22.48 -32.0899,43.73 -90.3599,59.85 z"
     fill="#3f3d56"
     id="path220"
     style="fill:#ffffff" />
  <path
     d="m 2128.7528,313.27576 c 0,13.36005 -11.0102,26 -30.6704,37.29 -3.2695,1.88 -6.7895,3.72 -10.5298,5.52 -0.98,0.47 -1.98,0.94 -2.9897,1.4 -0.27,0.13 -0.5503,0.26 -0.8301,0.38 -0.3901,0.18 -0.77,0.35 -1.1601,0.53 -0.5098,0.22 -1.04,0.45 -1.5601,0.68994 q -1.6201,0.705 -3.2998,1.41 c -0.6802,0.29 -1.3804,0.58 -2.0703,0.86 -0.6997,0.29 -1.4097,0.57 -2.1196,0.86 -1.42,0.56 -2.8604,1.13 -4.3301,1.68 -0.54,0.2 -1.0703,0.4 -1.6104,0.61 -0.6396,0.24 -1.2895,0.48 -1.9399,0.71 -0.7798,0.28 -1.5698,0.57 -2.3599,0.85 -0.73,0.26 -1.46,0.52 -2.21,0.77 -0.3198,0.12006 -0.6499,0.23 -0.98,0.34 -0.7798,0.27 -1.5698,0.54 -2.3598,0.8 -0.5801,0.2 -1.17,0.39 -1.77,0.59 q -1.2305,0.40494 -2.4903,0.81 c -1.1499,0.37 -2.31,0.73 -3.48,1.1 -1.4297,0.44 -2.8701,0.88 -4.3398,1.32 -0.07,0.02 -0.1402,0.04 -0.2202,0.06 -1.69,0.51 -3.4097,1 -5.1499,1.5 -0.8702,0.24 -1.7398,0.49 -2.6202,0.73 a 0.97843,0.97843 0 0 0 -0.1596,0.05 c -0.9204,0.25 -1.8404,0.5 -2.77,0.76 -2.5801,0.68 -5.21,1.37 -7.8701,2.04 -0.21,0.05 -0.4102,0.1 -0.6202,0.16 -38.3501,9.58 -85.3999,16.56 -137.4697,19.93 -22.81,1.47 -46.5903,2.25 -71.02,2.25 -24.6499,0 -48.6304,-0.79 -71.6201,-2.29 -137.2402,-8.95 -239.3799,-43.03 -239.3799,-83.71 a 25.07169,25.07169 0 0 1 1.1196,-7.3 c 0.06,0.17 0.1202,0.33 0.1905,0.5 14.2695,37.48 115.54,67.77 246.9399,75.16 20.1299,1.13995 40.98,1.73 62.3198,1.73 21.4302,0 42.3599,-0.6 62.5699,-1.74 131.29,-7.42 232.4604,-37.72 246.6801,-75.17 q 0.3604,-0.90006 0.6299,-1.8 a 25.30451,25.30451 0 0 1 1.5503,8.62006 z"
     fill="#3f3d56"
     id="path222"
     style="fill:#f6f6f7;fill-opacity:1" />
  <path
     d="m 467.94025,148.6725 c -46.62012,-7.44 -99.71,-11.41 -155,-11.41 -50.6001,0 -99.3501,3.32 -142.98,9.58 0.0103,-0.67005 0.02,-1.34 0.0498,-2.01 a 148.99943,148.99943 0 0 1 297.91015,1.82 c 0.0103,0.68 0.02,1.35 0.02,2.02 z"
     fill="#1b62f8"
     id="path1418" />
  <g
     opacity="0.1"
     id="g1422"
     transform="translate(0.94024092,-1.1314887)">
    <path
       d="M 601.28454,82.14432 A 149.04745,149.04745 0 0 0 432.35339,225.373 c -0.0303,0.67 -0.04,1.34 -0.0498,2.01 12.96191,-1.85981 26.38476,-3.4535 40.165,-4.78431 A 149.02172,149.02172 0 0 1 601.28454,82.14432 Z"
       transform="translate(-263.73425,-80.80301)"
       fill="#ffffff"
       id="path1420" />
  </g>
  <path
     d="m 533.12043,160.4925 a 600.121,600.121 0 0 0 -65.2002,-13.84 943.3639,943.3639 0 0 0 -108.73974,-10.45 c -15.17041,-0.62 -30.62012,-0.94 -46.24024,-0.94 -12.37988,0 -24.66015,0.2 -36.77,0.6 a 973.28988,973.28988 0 0 0 -106.16015,8.97 624.29224,624.29224 0 0 0 -77.250004,15.66 c -59.21,16.37 -91.81983107,38.31 -91.81983107,61.77 0,23.46 32.60987107,45.4 91.81983107,61.77 41.640134,11.52 92.980004,19.37 148.920414,22.97 23.08984,1.5 46.96,2.26 71.25976,2.26 24.37988,0 48.33008,-0.77 71.49024,-2.27 50.90966,-3.29 98.00976,-10.1 137.42968,-20 0.21,-0.06 0.41016,-0.11 0.62012,-0.16 2.66016,-0.66 5.27979,-1.35 7.87012,-2.04 0.92969,-0.26 1.84961,-0.51 2.77,-0.76 a 0.97843,0.97843 0 0 1 0.15967,-0.05 c 0.88037,-0.24 1.75,-0.49 2.62011,-0.73 1.74024,-0.5 3.46,-0.99 5.14991,-1.5 0.0801,-0.02 0.1499,-0.04 0.22021,-0.06 1.46973,-0.44 2.91016,-0.88 4.33984,-1.32 1.16993,-0.37 2.33008,-0.73 3.48,-1.1 q 1.26051,-0.405 2.49024,-0.81 c 0.6001,-0.2 1.18994,-0.39 1.77,-0.59 0.79,-0.26 1.58008,-0.53 2.35986,-0.8 0.33008,-0.11 0.66016,-0.22 0.98,-0.34 0.75,-0.25 1.48,-0.51 2.21,-0.77 0.79,-0.28 1.58008,-0.57 2.35987,-0.85 0.65039,-0.23 1.30029,-0.47 1.93994,-0.71 0.54,-0.21 1.07031,-0.41 1.61035,-0.61 1.46973,-0.55 2.91016,-1.12006 4.33008,-1.68 0.71,-0.29 1.41992,-0.57 2.11963,-0.86 0.68994,-0.28 1.39013,-0.57 2.07031,-0.86 q 1.67944,-0.70506 3.2998,-1.41 c 0.52,-0.24 1.0503,-0.47 1.56006,-0.68994 0.39014,-0.18 0.77,-0.35 1.16016,-0.53 0.27978,-0.12 0.56006,-0.25 0.83008,-0.38 1.00976,-0.46 2.00976,-0.93 2.98974,-1.4 q 5.64039,-2.7 10.52979,-5.52 c 20.45019,-11.71 31.24023,-24.7 31.24023,-38.2 -6e-5,-23.46006 -32.60992,-45.40006 -91.81988,-61.77006 z m -0.54,121.62 c -41.68994,11.53 -93.16992,19.38 -149.26026,22.95 -22.81005,1.45 -46.38964,2.2 -70.37988,2.2 -23.91015,0 -47.41015,-0.74 -70.1499,-2.19 -56.18018,-3.56 -107.74023,-11.41 -149.490234,-22.96 -58.27,-16.12 -90.3598711,-37.37 -90.3598711,-59.85 a 24.11774,24.11774 0 0 1 0.74024,-5.89 c 5.09961,-20.28 36.4697211,-39.26 89.6196311,-53.96 a 623.80606,623.80606 0 0 1 76.660154,-15.57 976.02713,976.02713 0 0 1 106.79981,-9 q 17.88061,-0.585 36.18017,-0.58 c 15.41016,0 30.6499,0.31 45.62988,0.91 a 941.36713,941.36713 0 0 1 109.37012,10.5 598.85754,598.85754 0 0 1 64.6401,13.74 c 53.14014,14.7 84.5,33.67 89.60986,53.94 a 23.82213,23.82213 0 0 1 0.75,5.91 c 0,22.48 -32.08984,43.73 -90.35986,59.85 z"
     fill="#3f3d56"
     id="path1424"
     style="fill:#f6f6f7;fill-opacity:1" />
  <path
     d="m 624.37043,223.1725 c 0,13.36005 -11.01026,26 -30.67041,37.29 -3.26953,1.88 -6.78955,3.72 -10.52979,5.52 -0.98,0.47 -1.98,0.94 -2.98974,1.4 -0.27,0.13 -0.5503,0.26 -0.83008,0.38 -0.39014,0.18 -0.77,0.35 -1.16016,0.53 -0.50976,0.22 -1.04,0.45 -1.56006,0.68994 q -1.6201,0.705 -3.2998,1.41 c -0.68018,0.29 -1.38037,0.58 -2.07031,0.86 -0.69971,0.29 -1.40967,0.57 -2.11963,0.86 -1.41992,0.56 -2.86035,1.13 -4.33008,1.68 -0.54,0.2 -1.07031,0.4 -1.61035,0.61 -0.63965,0.24 -1.28955,0.48 -1.93994,0.71 -0.77979,0.28 -1.56983,0.57 -2.35987,0.85 -0.73,0.26 -1.46,0.52 -2.21,0.77 -0.31982,0.12006 -0.6499,0.23 -0.98,0.34 -0.77978,0.27 -1.56982,0.54 -2.35986,0.8 -0.58008,0.2 -1.16992,0.39 -1.77,0.59 q -1.23046,0.40494 -2.49024,0.81 c -1.1499,0.37 -2.31,0.73 -3.48,1.1 -1.42968,0.44 -2.87011,0.88 -4.33984,1.32 -0.0703,0.02 -0.14014,0.04 -0.22021,0.06 -1.68995,0.51 -3.40967,1 -5.14991,1.5 -0.87011,0.24 -1.73974,0.49 -2.62011,0.73 a 0.97843,0.97843 0 0 0 -0.15967,0.05 c -0.92041,0.25 -1.84033,0.5 -2.77,0.76 -2.58008,0.68 -5.21,1.37 -7.87012,2.04 -0.21,0.05 -0.41016,0.1 -0.62012,0.16 -38.35009,9.58 -85.3999,16.56 -137.46972,19.93 -22.81006,1.47 -46.59033,2.25 -71.02,2.25 -24.6499,0 -48.63037,-0.79 -71.62012,-2.29 -137.24023,-8.95 -239.3798851,-43.03 -239.3798851,-83.71 a 25.07169,25.07169 0 0 1 1.11963,-7.3 c 0.0601,0.17 0.12011,0.33 0.19043,0.5 14.2695311,37.48 115.5400051,67.77 246.9399451,75.16 20.12988,1.13995 40.98,1.73 62.31982,1.73 21.43018,0 42.35987,-0.6 62.56983,-1.74 131.29,-7.42 232.46045,-37.72 246.68017,-75.17 q 0.36036,-0.90006 0.62988,-1.8 a 25.30451,25.30451 0 0 1 1.55032,8.62006 z"
     fill="#3f3d56"
     id="path1426"
     style="fill:#f6f6f7;fill-opacity:1" />
  <path
     d="m 92.609556,212.4085 c -16.6427,0 -34.33068,-3.58057 -34.33068,-10.2168 0,-6.63623 17.688,-10.2168 34.33068,-10.2168 16.642684,0 34.330694,3.58057 34.330694,10.2168 0,6.63623 -17.68799,10.2168 -34.330694,10.2168 z m 0,-18.4336 c -19.053,0 -32.33068,4.33057 -32.33068,8.2168 0,3.88623 13.2777,8.2168 32.33068,8.2168 19.052984,0 32.330694,-4.33057 32.330694,-8.2168 0,-3.88623 -13.27771,-8.21681 -32.330694,-8.21681 z"
     fill="#3f3d56"
     id="path1428"
     style="fill:#f6f6f7;fill-opacity:1" />
  <path
     d="m 163.60944,259.4085 c -16.64258,0 -34.33056,-3.58057 -34.33056,-10.2168 0,-6.63623 17.688,-10.2168 34.33056,-10.2168 16.64282,0 34.33081,3.58057 34.33081,10.2168 0,6.63623 -17.68799,10.2168 -34.33081,10.2168 z m 0,-18.4336 c -19.05286,0 -32.33056,4.33057 -32.33056,8.2168 0,3.88623 13.2777,8.2168 32.33056,8.2168 19.05286,0 32.33081,-4.33057 32.33081,-8.2168 0,-3.88623 -13.27783,-8.21681 -32.33081,-8.21681 z"
     fill="#3f3d56"
     id="path1430"
     style="fill:#f6f6f7;fill-opacity:1" />
  <path
     d="m 532.60944,212.4085 c -16.64258,0 -34.33056,-3.58057 -34.33056,-10.2168 0,-6.63623 17.688,-10.2168 34.33056,-10.2168 16.64282,0 34.33081,3.58057 34.33081,10.2168 0,6.63623 -17.68799,10.2168 -34.33081,10.2168 z m 0,-18.4336 c -19.053,0 -32.33056,4.33057 -32.33056,8.2168 0,3.88623 13.27758,8.2168 32.33056,8.2168 19.05298,0 32.33081,-4.33057 32.33081,-8.2168 0,-3.88623 -13.27783,-8.21681 -32.33081,-8.21681 z"
     fill="#3f3d56"
     id="path1432"
     style="fill:#f6f6f7;fill-opacity:1" />
  <path
     d="m 461.60944,259.4085 c -16.64258,0 -34.33056,-3.58057 -34.33056,-10.2168 0,-6.63623 17.688,-10.2168 34.33056,-10.2168 16.64282,0 34.33081,3.58057 34.33081,10.2168 0,6.63623 -17.68799,10.2168 -34.33081,10.2168 z m 0,-18.4336 c -19.053,0 -32.33056,4.33057 -32.33056,8.2168 0,3.88623 13.27758,8.2168 32.33056,8.2168 19.05298,0 32.33081,-4.33057 32.33081,-8.2168 0,-3.88623 -13.27783,-8.21681 -32.33081,-8.21681 z"
     fill="#3f3d56"
     id="path1434"
     style="fill:#f6f6f7;fill-opacity:1" />
  <path
     d="m 312.60944,281.4085 c -16.64258,0 -34.33056,-3.58057 -34.33056,-10.2168 0,-6.63623 17.688,-10.2168 34.33056,-10.2168 16.64282,0 34.33081,3.58057 34.33081,10.2168 0,6.63623 -17.68799,10.2168 -34.33081,10.2168 z m 0,-18.4336 c -19.053,0 -32.33056,4.33057 -32.33056,8.2168 0,3.88623 13.27758,8.2168 32.33056,8.2168 19.05298,0 32.33081,-4.33057 32.33081,-8.2168 0,-3.88623 -13.27783,-8.21681 -32.33081,-8.21681 z"
     fill="#3f3d56"
     id="path1436"
     style="fill:#f6f6f7;fill-opacity:1" />
  <circle
     cx="337.91809"
     cy="449.57278"
     r="42.012329"
     fill="#2f2e41"
     id="circle1438"
     style="fill:#f6f6f7;fill-opacity:1" />
  <rect
     x="51.329086"
     y="570.82196"
     width="22.867559"
     height="12.76328"
     transform="rotate(-26.60099)"
     fill="#2f2e41"
     id="rect1440"
     style="fill:#f6f6f7;fill-opacity:1" />
  <ellipse
     cx="-244.89168"
     cy="522.0401"
     rx="3.9885299"
     ry="10.63605"
     transform="rotate(-56.60122)"
     fill="#2f2e41"
     id="ellipse1442"
     style="fill:#f6f6f7;fill-opacity:1" />
  <rect
     x="-280.9631"
     y="530.09998"
     width="12.76328"
     height="22.867559"
     transform="rotate(-63.39901)"
     fill="#2f2e41"
     id="rect1444"
     style="fill:#f6f6f7;fill-opacity:1" />
  <ellipse
     cx="42.188179"
     cy="616.91449"
     rx="10.63605"
     ry="3.9885299"
     transform="rotate(-33.39878)"
     fill="#2f2e41"
     id="ellipse1446"
     style="fill:#f6f6f7;fill-opacity:1" />
  <circle
     cx="334.97687"
     cy="439.29633"
     r="14.35864"
     fill="#ffffff"
     id="circle1448"
     style="fill:#4d4d4d" />
  <ellipse
     cx="-69.348808"
     cy="543.2171"
     rx="4.7662401"
     ry="4.8000002"
     transform="rotate(-45)"
     fill="#3f3d56"
     id="ellipse1450"
     style="fill:#f6f6f7;fill-opacity:1" />
  <path
     d="m 371.06,403.86783 c 0.63177,-15.55359 -12.77314,-28.7276 -29.9408,-29.42493 -17.16766,-0.69733 -31.59692,11.346 -32.22873,26.8996 -0.63181,15.5536 11.30191,19.08746 28.46958,19.78485 17.16767,0.69739 33.06809,-1.70593 33.69995,-17.25952 z"
     fill="#1b62f8"
     id="path1452" />
  <ellipse
     cx="-7.2493458"
     cy="594.27539"
     rx="6.59448"
     ry="21.006161"
     transform="rotate(-40.64516)"
     fill="#2f2e41"
     id="ellipse1454"
     style="fill:#f6f6f7;fill-opacity:1" />
  <ellipse
     cx="-153.97768"
     cy="520.13464"
     rx="21.006161"
     ry="6.59448"
     transform="rotate(-49.35484)"
     fill="#2f2e41"
     id="ellipse1456"
     style="fill:#f6f6f7;fill-opacity:1" />
  <path
     d="m 349.45683,466.1293 a 9.5724422,9.5724423 0 0 1 -18.83533,3.42884 l -0.003,-0.0185 c -0.94177,-5.20214 3.08039,-7.043 8.28254,-7.98474 5.20215,-0.94174 9.61444,-0.62774 10.55615,4.5744 z"
     fill="#ffffff"
     id="path1458"
     style="fill:#4d4d4d" />
  <path
     d="m 266.94025,494.2625 a 2.0001,2.0001 0 0 1 -2,-2 v -118 a 2,2 0 0 1 4,0 v 118 a 2.0001,2.0001 0 0 1 -2,2 z"
     fill="#cccccc"
     id="path1460" />
  <path
     d="m 236.94025,600.2625 a 2.0001,2.0001 0 0 1 -2,-2 v -86 a 2,2 0 1 1 4,0 v 86 a 2.0001,2.0001 0 0 1 -2,2 z"
     fill="#cccccc"
     id="path1462" />
  <path
     d="m 313.94025,529.2625 a 2.0001,2.0001 0 0 1 -2,-2 v -118 a 2,2 0 1 1 4,0 v 118 a 2.0001,2.0001 0 0 1 -2,2 z"
     fill="#cccccc"
     id="path1464" />
  <path
     d="m 284.94025,614.2625 a 2.0001,2.0001 0 0 1 -2,-2 v -48 a 2,2 0 1 1 4,0 v 48 a 2.0001,2.0001 0 0 1 -2,2 z"
     fill="#cccccc"
     id="path1466" />
  <path
     d="m 325.94025,368.2625 a 2.0001,2.0001 0 0 1 -2,-2 v -48 a 2,2 0 0 1 4,0 v 48 a 2.0001,2.0001 0 0 1 -2,2 z"
     fill="#cccccc"
     id="path1468" />
  <path
     d="m 225.94025,389.2625 a 2.0001,2.0001 0 0 1 -2,-2 v -48 a 2,2 0 0 1 4,0 v 48 a 2.0001,2.0001 0 0 1 -2,2 z"
     fill="#cccccc"
     id="path1470" />
  <path
     d="m 399.94025,394.2625 a 2.0001,2.0001 0 0 1 -2,-2 v -48 a 2,2 0 1 1 4,0 v 48 a 2.0001,2.0001 0 0 1 -2,2 z"
     fill="#cccccc"
     id="path1472" />
  <path
     d="m 395.94025,544.2625 a 2.0001,2.0001 0 0 1 -2,-2 v -58 a 2,2 0 1 1 4,0 v 58 a 2.0001,2.0001 0 0 1 -2,2 z"
     fill="#cccccc"
     id="path1474" />
  <path
     d="m 355.94025,595.2625 a 2.0001,2.0001 0 0 1 -2,-2 v -86 a 2,2 0 1 1 4,0 v 86 a 2.0001,2.0001 0 0 1 -2,2 z"
     fill="#cccccc"
     id="path1476" />
  <path
     d="m 363.94025,448.2625 a 2.0001,2.0001 0 0 1 -2,-2 v -118 a 2,2 0 1 1 4,0 v 118 a 2.0001,2.0001 0 0 1 -2,2 z"
     fill="#cccccc"
     id="path1478" />
  <ellipse
     cx="18.081089"
     cy="905.73132"
     rx="6.7600698"
     ry="21.533689"
     transform="rotate(-39.93837)"
     fill="#2f2e41"
     id="ellipse1480"
     style="fill:#f6f6f7;fill-opacity:1" />
  <circle
     cx="-466.94513"
     cy="734.87482"
     r="43.067329"
     transform="rotate(-71.56505)"
     fill="#2f2e41"
     id="circle1482"
     style="fill:#f6f6f7;fill-opacity:1" />
  <rect
     x="554.64752"
     y="709.17047"
     width="13.08374"
     height="23.44171"
     fill="#2f2e41"
     id="rect1484"
     style="fill:#f6f6f7;fill-opacity:1" />
  <rect
     x="528.48004"
     y="709.17047"
     width="13.08374"
     height="23.44171"
     fill="#2f2e41"
     id="rect1486"
     style="fill:#f6f6f7;fill-opacity:1" />
  <ellipse
     cx="556.82812"
     cy="732.88477"
     rx="10.90314"
     ry="4.0886798"
     fill="#2f2e41"
     id="ellipse1488"
     style="fill:#f6f6f7;fill-opacity:1" />
  <ellipse
     cx="530.66064"
     cy="732.3396"
     rx="10.90314"
     ry="4.0886798"
     fill="#2f2e41"
     id="ellipse1490"
     style="fill:#f6f6f7;fill-opacity:1" />
  <path
     d="m 535.97965,621.23403 c 3.84557,-15.487 20.82057,-24.60076 37.91471,-20.35617 17.09414,4.24459 27.83428,20.24028 23.98871,35.72729 -3.84557,15.48701 -16.60394,15.537 -33.69809,11.29233 -17.09415,-4.24467 -32.05092,-11.17641 -28.20533,-26.66345 z"
     fill="#cccccc"
     id="path1492" />
  <ellipse
     cx="-377.47006"
     cy="733.51501"
     rx="6.7600698"
     ry="21.533689"
     transform="rotate(-64.62574)"
     fill="#2f2e41"
     id="ellipse1494"
     style="fill:#f6f6f7;fill-opacity:1" />
  <circle
     cx="543.0639"
     cy="666.28333"
     r="14.35864"
     fill="#ffffff"
     id="circle1496"
     style="fill:#4d4d4d" />
  <circle
     cx="537.16254"
     cy="661.13654"
     fill="#3f3d56"
     id="circle1498"
     r="4.7862201"
     style="fill:#f6f6f7;fill-opacity:1" />
  <circle
     cx="542.94025"
     cy="696.26245"
     r="6"
     fill="#ffffff"
     id="circle1500"
     style="fill:#4d4d4d" />
  <path
     d="m 672.47175,737.2625 h -236 a 1,1 0 0 1 0,-2 h 236 a 1,1 0 0 1 0,2 z"
     fill="#3f3d56"
     id="path1502"
     style="fill:#f6f6f7;fill-opacity:1" />
</svg>
